<svg width="121" height="42" viewBox="0 0 121 42" fill="none" xmlns="http://www.w3.org/2000/svg">
<path d="M92.5855 4.75038L101.946 4.74479L101.992 10.3693L92.5892 10.404L92.5855 4.75038Z" fill="black"/>
<path d="M92.5855 12.3512L101.946 12.3456L101.992 17.9701L92.5892 18.0049L92.5855 12.3512Z" fill="black"/>
<path d="M107.861 2H111.485V8H107.861V2ZM116.861 8H113.18V2H116.861V8Z" fill="black"/>
<path d="M97.7997 40.9601L94.3989 36.4752C106.002 28.5 109.357 20.6972 111.075 10.6464L116.649 11.9013C114.738 23.0188 109.335 34.3548 97.7997 40.9601Z" fill="black"/>
<path d="M75.8594 0H79.4827V6H75.8594V0ZM84.8594 6H81.1776V0H84.8594V6Z" fill="black"/>
<path d="M67.8048 5H73.4503L73.6594 7.82305H82.8594V13.4692H74.0253L74.7048 23.0885H82.8594V28.7346H75.0707L75.9995 41.5H70.4995L69.4253 28.7346H59.8594V23.0885H69.0594L68.3798 13.4692H59.8594V7.82305H68.0139L67.8048 5Z" fill="black"/>
<path d="M44.7594 11.0641H37.8434C36.9074 15.8481 35.1914 20.1121 32.4354 23.6481L27.8594 20.3721C31.5514 15.5361 32.9554 9.66014 32.9554 2.64014H38.5714C38.5714 3.57613 38.5194 4.51213 38.4674 5.44813H50.3754V20.6321C50.3754 33.1641 43.6154 39.1961 36.1274 41.4321L33.7354 36.3361C41.0154 33.8921 44.7594 29.6281 44.7594 20.6321V11.0641Z" fill="black"/>
<path d="M0.988001 4.448H19.344V10.064H0.988001V4.448ZM5.2 40.432L2.808 35.336C11.44 31.28 13.832 25.456 14.508 18.488H0V12.872H20.332C20.332 27.016 16.38 35.856 5.2 40.432Z" fill="black"/>
</svg>
